<svg xmlns="http://www.w3.org/2000/svg" viewBox="0 0 1200 630"><rect width="1200" height="630" fill="#071827"/><g font-family="Arial,sans-serif" text-anchor="middle"><text x="600" y="75" fill="#fff" font-size="38" font-weight="700">Think in paths, then test the evidence</text><g fill="#123653" stroke="#38bdf8" stroke-width="3"><circle cx="145" cy="300" r="75"/><circle cx="375" cy="210" r="75"/><circle cx="375" cy="410" r="75"/><circle cx="650" cy="300" r="80"/><circle cx="925" cy="210" r="75"/><circle cx="925" cy="410" r="75"/><circle cx="1090" cy="300" r="70"/></g><g fill="#fff" font-size="21" font-weight="700"><text x="145" y="295">Foothold</text><text x="145" y="322">obtained</text><text x="375" y="205">Steal</text><text x="375" y="232">credentials</text><text x="375" y="405">Abuse</text><text x="375" y="432">trust</text><text x="650" y="295">Move</text><text x="650" y="322">laterally</text><text x="925" y="205">Collect</text><text x="925" y="232">data</text><text x="925" y="405">Create</text><text x="925" y="432">persistence</text><text x="1090" y="305">Objective</text></g><g stroke="#fbbf24" stroke-width="5" fill="none"><path d="M215 270L305 230M215 330L305 390M450 220L575 280M450 400L575 320M730 280L850 225M730 320L850 395M995 230L1030 270M995 400L1030 335"/></g></g></svg>
