<svg xmlns="http://www.w3.org/2000/svg" viewBox="0 0 1200 630" role="img" aria-label="SOC data ecosystem"><rect width="1200" height="630" fill="#071827"/><g font-family="Arial" text-anchor="middle"><text x="600" y="70" fill="white" font-size="38" font-weight="700">Map the evidence before the hunt</text><g fill="#123653" stroke="#38bdf8" stroke-width="3"><rect x="55" y="175" width="190" height="100" rx="18"/><rect x="55" y="355" width="190" height="100" rx="18"/><rect x="300" y="175" width="190" height="100" rx="18"/><rect x="300" y="355" width="190" height="100" rx="18"/><rect x="545" y="265" width="240" height="110" rx="18"/><rect x="850" y="265" width="285" height="110" rx="18"/></g><g fill="white" font-size="23" font-weight="700"><text x="150" y="235">Endpoint</text><text x="150" y="415">Identity</text><text x="395" y="235">Network</text><text x="395" y="415">Cloud / SaaS</text><text x="665" y="325">Normalize &amp; retain</text><text x="992" y="325">Hunt &amp; correlate</text></g><g stroke="#fbbf24" stroke-width="5"><path d="M245 225L545 290M245 405L545 350M490 225L545 290M490 405L545 350M785 320L850 320"/></g><text x="600" y="535" fill="#d8eefc" font-size="22">Coverage • fields • delay • retention • ownership • gaps</text></g></svg>
